<?xml version="1.0" encoding="utf-8"?>
<!-- Generator: Adobe Illustrator 23.0.3, SVG Export Plug-In . SVG Version: 6.00 Build 0)  -->
<svg version="1.1" id="Capa_1" xmlns="http://www.w3.org/2000/svg" xmlns:xlink="http://www.w3.org/1999/xlink" x="0px" y="0px"
	 viewBox="0 0 512 512" style="enable-background:new 0 0 512 512;" xml:space="preserve">
<style type="text/css">
	.st0{fill:#11A8DD;}
	.st1{fill:#FFFFFF;}
	.st2{fill:#F70688;}
</style>
<g>
	<g>
		<path class="st0" d="M45.9,348.9h80.8v123.2H45.9V348.9z"/>
	</g>
	<g>
		<path class="st1" d="M159,300.4h80.8v171.7H159V300.4z"/>
	</g>
	<g>
		<path class="st0" d="M272.2,239.8H353v232.3h-80.8L272.2,239.8z"/>
	</g>
	<g>
		<path class="st1" d="M385.3,199.4h80.8v272.7h-80.8L385.3,199.4z"/>
	</g>
	<g>
		<path class="st1" d="M504.5,472.2v32.3H7.5v-32.3H504.5z"/>
	</g>
	<g>
		<path class="st2" d="M450,7.5h-80.8v32.3h41.8l-84.9,84.9h-67c-4.5,0-8.9,1.9-11.9,5.2l-95.2,103.9h-107v32.3H159
			c4.5,0,8.9-1.9,11.9-5.2L266.1,157h66.6c4.3,0,8.4-1.7,11.4-4.7l89.6-89.6v41.8h32.3V23.7C466.1,14.7,458.9,7.5,450,7.5L450,7.5z"
			/>
	</g>
	<g>
		<path d="M504.5,464.7h-30.9v-117c0-4.1-3.4-7.5-7.5-7.5s-7.5,3.4-7.5,7.5v117h-65.8V206.9h65.8v105.7c0,4.1,3.4,7.5,7.5,7.5
			s7.5-3.4,7.5-7.5V199.4c0-4.1-3.4-7.5-7.5-7.5h-80.8c-4.1,0-7.5,3.4-7.5,7.5v265.2h-17.3V239.8c0-4.1-3.4-7.5-7.5-7.5h-80.8
			c-4.1,0-7.5,3.4-7.5,7.5v224.8h-17.3V300.4c0-4.1-3.4-7.5-7.5-7.5H159c-4.1,0-7.5,3.4-7.5,7.5v164.2h-17.3V348.9
			c0-4.1-3.4-7.5-7.5-7.5H45.9c-4.1,0-7.5,3.4-7.5,7.5v115.7H7.5c-4.1,0-7.5,3.4-7.5,7.5v32.3c0,4.1,3.4,7.5,7.5,7.5h81
			c4.1,0,7.5-3.4,7.5-7.5s-3.4-7.5-7.5-7.5H15v-17.3h482V497H123.5c-4.1,0-7.5,3.4-7.5,7.5s3.4,7.5,7.5,7.5h381
			c4.1,0,7.5-3.4,7.5-7.5v-32.3C512,468,508.6,464.7,504.5,464.7L504.5,464.7z M279.7,247.3h65.8v217.3h-65.8L279.7,247.3z
			 M166.5,307.9h65.8v156.7h-65.8V307.9z M53.4,356.4h65.8v108.2H53.4V356.4z"/>
		<path d="M44.9,273.6H159c6.6,0,13-2.8,17.4-7.7l93-101.4h63.3c6.3,0,12.3-2.5,16.7-6.9l76.8-76.8v23.7c0,4.1,3.4,7.5,7.5,7.5h32.3
			c4.1,0,7.5-3.4,7.5-7.5V23.7C473.6,10.6,463,0,450,0h-80.8c-4.1,0-7.5,3.4-7.5,7.5v32.3c0,4.1,3.4,7.5,7.5,7.5h23.7L323,117.2H259
			c-6.6,0-13,2.8-17.4,7.7l-93,101.4h-20.7c-4.1,0-7.5,3.4-7.5,7.5s3.4,7.5,7.5,7.5h24c2.1,0,4.1-0.9,5.5-2.4L252.6,135
			c1.6-1.8,4-2.8,6.4-2.8h67.1c2,0,3.9-0.8,5.3-2.2l84.9-84.8c2.1-2.1,2.8-5.4,1.6-8.2c-1.2-2.8-3.9-4.6-6.9-4.6h-34.3V15h73.3
			c4.8,0,8.7,3.9,8.7,8.7V97h-17.3V62.7c0-3-1.8-5.8-4.6-6.9c-2.8-1.2-6-0.5-8.2,1.6L338.9,147c-1.6,1.6-3.8,2.5-6.1,2.5h-66.6
			c-2.1,0-4.1,0.9-5.5,2.4l-95.2,103.9c-1.6,1.8-4,2.8-6.4,2.8H52.4v-17.3h40.6c4.1,0,7.5-3.4,7.5-7.5s-3.4-7.5-7.5-7.5h-48
			c-4.1,0-7.5,3.4-7.5,7.5v32.3C37.4,270.2,40.7,273.6,44.9,273.6L44.9,273.6z"/>
	</g>
</g>
</svg>
