<?xml version="1.0" encoding="utf-8"?>
<!-- Generator: Adobe Illustrator 23.0.3, SVG Export Plug-In . SVG Version: 6.00 Build 0)  -->
<svg version="1.1" id="Layer_5" xmlns="http://www.w3.org/2000/svg" xmlns:xlink="http://www.w3.org/1999/xlink" x="0px" y="0px"
	 viewBox="0 0 512 512" style="enable-background:new 0 0 512 512;" xml:space="preserve">
<style type="text/css">
	.st0{fill:#969FAA;}
	.st1{fill:#CCD1D9;}
	.st2{fill:#E6E9ED;}
	.st3{fill:#FFFFFF;}
	.st4{fill:#11A8DD;}
	.st5{fill:#9146FF;}
	.st6{fill:#AAB2BD;}
	.st7{fill:#F70688;}
</style>
<g>
	<g>
		<g>
			<path class="st0" d="M376,480c0,4.4-1.8,8.4-4.7,11.3c-2.9,3-6.9,4.7-11.3,4.7H120c-8.8,0-16-7.2-16-16s3.6-16.8,9.4-22.6
				c5.8-5.8,13.8-9.4,22.6-9.4h24h160h24C361.7,448,376,462.3,376,480z"/>
		</g>
		<g>
			<path class="st1" d="M432,400H48c-17.7,0-32-14.3-32-32V128c0-17.7,14.3-32,32-32h384c17.7,0,32,14.3,32,32v240
				C464,385.7,449.7,400,432,400z"/>
		</g>
		<g>
			<path class="st2" d="M80,80h320v256H80V80z"/>
		</g>
		<g>
			<path class="st3" d="M480,200c8.8,0,16,7.2,16,16c0,4.4-1.8,8.4-4.7,11.3c-2.9,3-6.9,4.7-11.3,4.7c8.8,0,16,7.2,16,16
				c0,4.4-1.8,8.4-4.7,11.3c-2.9,3-6.9,4.7-11.3,4.7c4.4,0,8.4,1.8,11.3,4.7c3,2.9,4.7,6.9,4.7,11.3c0,8.8-7.2,16-16,16h-16h-32h-32
				h-32.2c-5.1,0-10.2-0.8-15.1-2.5L336,288h-16v-96h14.3c6.3,0,12.5-1.8,17.8-5.4c12.5-8.3,22.5-19.4,29.4-32.3
				C388.2,141.5,392,127,392,112V80V59.3c0-5.1,3.4-9.4,8-10.7c1-0.4,2.2-0.6,3.3-0.6c3,0,5.9,1.2,8,3.3
				c8.2,8.2,12.7,19.2,12.7,30.6V96v56c0,8.8,7.2,16,16,16h24h16c8.8,0,16,7.2,16,16c0,4.4-1.8,8.4-4.7,11.3
				C488.4,198.2,484.4,200,480,200z"/>
		</g>
		<g>
			<path class="st4" d="M432,296v32c0,4.4-3.6,8-8,8h-24v-40H432z"/>
		</g>
		<g>
			<path class="st5" d="M400,32v16.6c-4.6,1.4-8,5.6-8,10.7V80H80V32c0-8.8,7.2-16,16-16h288C392.8,16,400,23.2,400,32z"/>
		</g>
		<g>
			<path class="st3" d="M320,288v16h-32V176h32v16V288z"/>
		</g>
		<g>
			<path class="st6" d="M320,448H160c15-10,24-26.8,24-44.9V400h112v3.1C296,421.2,305,438,320,448z"/>
		</g>
		<g>
			<path class="st7" d="M288,176v128v32h-96V160h96V176z"/>
		</g>
		<g>
			<path class="st3" d="M112,160h48v48h-48V160z"/>
		</g>
		<g>
			<path class="st4" d="M80,128v208H56c-4.4,0-8-3.6-8-8V136c0-4.4,3.6-8,8-8H80z"/>
		</g>
	</g>
	<g>
		<path d="M120,360h16v16h-16V360z"/>
		<path d="M88,360h16v16H88V360z"/>
		<path d="M56,360h16v16H56V360z"/>
		<path d="M497.8,200c3.8-4.3,6.2-9.8,6.2-16c0-13.2-10.8-24-24-24h-8v-32c0-22.1-17.9-40-40-40v-6.1c0-13.7-5.3-26.6-15-36.3
			c-2.5-2.5-5.6-4.2-9-5V32c0-13.2-10.8-24-24-24H96C82.8,8,72,18.8,72,32v56H48c-22.1,0-40,17.9-40,40v240c0,22.1,17.9,40,40,40
			h127.7c-1.3,12.8-8,24.3-18.4,32H136c-22.1,0-40,17.9-40,40c0,13.2,10.8,24,24,24h240c13.2,0,24-10.8,24-24c0-22.1-17.9-40-40-40
			h-21.3c-10.4-7.7-17-19.2-18.4-32H432c22.1,0,40-17.9,40-40v-64h8c13.2,0,24-10.8,24-24c0-6.2-2.4-11.7-6.2-16
			c3.8-4.3,6.2-9.8,6.2-16s-2.4-11.7-6.2-16c3.8-4.3,6.2-9.8,6.2-16S501.6,204.3,497.8,200z M456,128v32h-16c-4.4,0-8-3.6-8-8v-48
			C445.2,104,456,114.8,456,128z M96,24h288c4.4,0,8,3.6,8,8v11.7c-4.8,3.5-8,9.2-8,15.6V72H88V32C88,27.6,91.6,24,96,24z M424,304
			v24h-16v-24H424z M392,328h-96v-16h32v-16h6.7l15.4,5.1c5.7,1.9,11.7,2.9,17.7,2.9H392L392,328z M296,184h16v112h-16V184z
			 M280,328h-80V168h80V328z M296,168v-16H184v176H88V88h296v24c0,27.4-13.6,52.8-36.4,68c-4,2.6-8.6,4-13.3,4H328v-16H296z M72,328
			H56V136h16V328z M368,480c0,4.4-3.6,8-8,8H120c-4.4,0-8-3.6-8-8c0-13.2,10.8-24,24-24h208C357.2,456,368,466.8,368,480z
			 M300.2,440H179.8c6.9-9.2,11-20.3,11.9-32h96.6C289.2,419.7,293.4,430.8,300.2,440z M456,368c0,13.2-10.8,24-24,24H48
			c-13.2,0-24-10.8-24-24V128c0-13.2,10.8-24,24-24h24v16H56c-8.8,0-16,7.2-16,16v192c0,8.8,7.2,16,16,16h368c8.8,0,16-7.2,16-16
			v-24h16V368z M480,288H367.8c-4.3,0-8.6-0.7-12.6-2.1l-17.8-5.9H328v-80h6.3c7.9,0,15.6-2.3,22.2-6.7
			c27.2-18.2,43.5-48.5,43.5-81.3V59.3c0-2.7,3.7-4.2,5.7-2.3c6.7,6.7,10.3,15.5,10.3,25V152c0,13.2,10.8,24,24,24h40
			c4.4,0,8,3.6,8,8s-3.6,8-8,8h-24v16h24c4.4,0,8,3.6,8,8s-3.6,8-8,8h-24v16h24c4.4,0,8,3.6,8,8s-3.6,8-8,8h-24v16h24
			c4.4,0,8,3.6,8,8S484.4,288,480,288z"/>
		<path d="M104,216h64v-64h-64V216z M120,168h32v32h-32V168z"/>
		<path d="M104,232h64v16h-64V232z"/>
		<path d="M104,264h64v16h-64V264z"/>
		<path d="M104,296h64v16h-64V296z"/>
		<path d="M168,40h16v16h-16V40z"/>
		<path d="M136,40h16v16h-16V40z"/>
		<path d="M104,40h16v16h-16V40z"/>
		<path d="M104,104h16v16h-16V104z"/>
		<path d="M136,104h232v16H136V104z"/>
	</g>
</g>
</svg>
