<?xml version="1.0" encoding="utf-8"?>
<!-- Generator: Adobe Illustrator 23.0.3, SVG Export Plug-In . SVG Version: 6.00 Build 0)  -->
<svg version="1.1" id="Layer_1" xmlns="http://www.w3.org/2000/svg" xmlns:xlink="http://www.w3.org/1999/xlink" x="0px" y="0px"
	 viewBox="0 0 512 512" style="enable-background:new 0 0 512 512;" xml:space="preserve">
<style type="text/css">
	.st0{fill:#11A8DD;}
	.st1{fill:#FFFFFF;}
	.st2{fill:#2FA8CC;}
	.st3{fill:#7F8E94;}
	.st4{fill:#0377BC;}
	.st5{fill:#B70069;}
	.st6{fill:#F70688;}
	.st7{fill:#283593;}
	.st8{fill:#E5E5E5;}
	.st9{fill:#545C60;}
	.st10{fill:#9E9E9E;}
</style>
<g>
	<g id="Icons" transform="translate(1 1)">
		<path id="Shape" class="st0" d="M161.1,387.3c0,11.8-23,21.3-51.2,21.3s-51.2-9.6-51.2-21.3c0-9.3,14.3-17.2,34.1-20.1H127
			C146.9,370.1,161.1,378,161.1,387.3z"/>
		<path class="st1" d="M161.1,387.3v34.1c0,11.8-23,21.3-51.2,21.3s-51.2-9.6-51.2-21.3v-34.1c0,11.8,23,21.3,51.2,21.3
			S161.1,399,161.1,387.3z"/>
		<path class="st2" d="M365.9,92.9V50.2c0-9.4-7.7-17-17.1-17.1H24.6c-9.4,0-17,7.7-17.1,17.1v238.9"/>
		<path class="st3" d="M365.9,297.7c-4.3,0-8.6,0.3-12.8,0.9c-24.5,3-47.1,14.9-63.5,33.3h-265c-9.4,0-17-7.7-17.1-17.1v-25.6h321.3
			c7.6,3.7,15.8,6.3,24.1,7.5c0.2,0.1,0.3,0.1,0.3,0C357.5,297.3,361.7,297.7,365.9,297.7L365.9,297.7z"/>
		<path class="st4" d="M365.9,50.2V127c-4.2,0-8.5,0.3-12.6,1c-0.1-0.1-0.2-0.1-0.3,0c-4.3,0.6-8.5,1.6-12.6,3
			c-35.6,11.1-59.8,44.1-59.7,81.3c0,11.8,2.4,23.4,7.2,34.1c8.1,18.6,22.7,33.8,41,42.7H7.5V50.2c0-9.4,7.7-17,17.1-17.1h324.3
			c1.2,0,2.5,0.2,3.7,0.4c2.8,0.6,5.4,1.9,7.5,3.8C363.8,40.6,365.9,45.3,365.9,50.2z"/>
		<path class="st0" d="M292,169.7c-11.8,20.5-14.6,45.1-7.6,67.7s23,41.4,44.3,51.8H7.5V50.2c0-9.4,7.7-17,17.1-17.1h298.7
			c1.2,0,2.5,0.2,3.7,0.4c2.8,0.6,5.4,1.9,7.5,3.8c3.7,3.2,5.9,7.9,5.9,12.9V131C320,137.4,302.7,151.2,292,169.7L292,169.7z"/>
		<path class="st5" d="M468.3,400.1v68.3c0,4.7-3.8,8.5-8.5,8.5H272.1c-4.7,0-8.5-3.8-8.5-8.5v-68.3c0-51.6,38.4-95.1,89.6-101.5
			c4.2-0.6,8.5-0.9,12.8-0.9c27.2,0,53.2,10.8,72.4,30C457.5,346.9,468.3,372.9,468.3,400.1z"/>
		<path class="st6" d="M442.7,400.1v68.3c0,4.7-3.8,8.5-8.5,8.5H272.1c-4.7,0-8.5-3.8-8.5-8.5v-68.3c0-51.6,38.4-95.1,89.6-101.5
			C404.3,304.9,442.8,348.5,442.7,400.1z"/>
		<path class="st7" d="M292,169.7c-13.6,23.5-15.2,52-4.3,76.8h-24.2c-4.4,0-8.8-0.8-12.8-2.6c-12.9-5.2-21.4-17.7-21.3-31.6v-8.5
			c0-15.1,9.9-28.4,24.4-32.7c3.2-1,6.4-1.4,9.7-1.5H292z"/>
		<path class="st8" d="M502.5,203.8v8.5c0,18.9-15.3,34.1-34.1,34.1h-24.2c10.9-24.8,9.3-53.3-4.3-76.8h28.5c3.3,0,6.6,0.5,9.7,1.5
			C492.5,175.4,502.5,188.7,502.5,203.8z"/>
		<path class="st1" d="M292,169.7c-13.6,23.5-15.2,52-4.3,76.8h-24.2c-4.4,0-8.8-0.8-12.8-2.6c-12.9-5.2-21.4-17.7-21.3-31.6v-8.5
			c0-15.1,9.9-28.4,24.4-32.7c3.2-1,6.4-1.4,9.7-1.5H292z"/>
		<path class="st1" d="M476.9,203.8v8.5c0,18.3-14.5,33.4-32.8,34c4.7-10.7,7.2-22.3,7.2-34c0-15-3.9-29.7-11.4-42.7h2.9
			c3.3,0,6.6,0.5,9.7,1.5C466.9,175.4,476.9,188.7,476.9,203.8z"/>
		<ellipse id="Oval" class="st9" cx="182.5" cy="216.6" rx="21.3" ry="46.9"/>
		<path class="st9" d="M92.9,263.5H127v110.9c0,4.7-3.8,8.5-8.5,8.5h-17.1c-4.7,0-8.5-3.8-8.5-8.5V263.5z"/>
		<path class="st1" d="M451.3,212.3c0,11.7-2.4,23.3-7.2,34v0.1c-13.5,31.1-44.2,51.2-78.2,51.2c-4.2,0-8.5-0.3-12.6-1
			c-0.1,0.1-0.2,0.1-0.3,0c-8.4-1.3-16.6-3.8-24.2-7.5c-18.3-8.9-32.8-24-41-42.7c-10.9-24.8-9.3-53.3,4.3-76.8
			c10.7-18.5,27.9-32.3,48.3-38.7c4.1-1.3,8.3-2.3,12.6-3c0.2-0.1,0.3-0.1,0.3,0c4.2-0.7,8.4-1,12.6-1c22.6,0,44.3,9,60.3,25
			S451.3,189.7,451.3,212.3z"/>
		<path class="st1" d="M425.7,212.3c0,42.1-30.7,77.9-72.4,84.3c-0.1,0.1-0.2,0.1-0.3,0c-41.5-6.5-72.2-42.3-72.2-84.3
			s30.6-77.8,72.2-84.3c0.2-0.1,0.3-0.1,0.3,0C394.9,134.4,425.7,170.2,425.7,212.3L425.7,212.3z"/>
		<path class="st10" d="M135.5,229.4V255c0,4.7-3.8,8.5-8.5,8.5H92.9c-4.7,0-8.5-3.8-8.5-8.5v-25.6H135.5z"/>
		<path class="st9" d="M135.5,178.2v51.2H84.3v-51.2c0-14.1,11.5-25.6,25.6-25.6S135.5,164.1,135.5,178.2z"/>
	</g>
	<g id="Layer_10">
		<path d="M25.6,341.3h59.7v19.8c-21.2,4.7-34.1,14.8-34.1,27.2v34.1c0,39.6,119.5,39.8,119.5,0v-34.1c0-12.4-12.9-22.5-34.1-27.2
			v-19.8h137.1c-11.5,17.8-17.6,38.5-17.6,59.7v68.3c0,9.4,7.6,17.1,17.1,17.1h187.7c9.4,0,17.1-7.6,17.1-17.1v-68.3
			c-0.1-45.6-28-86.5-70.5-103.2c18.5-8.9,33.6-23.6,43-41.9h18.9c23.6,0,42.6-19.1,42.7-42.7v-8.5c-0.2-17.2-10.6-32.7-26.5-39.3
			c-18.4-45.5-61.1-76.4-110.1-79.9V51.2c0-14.1-11.5-25.6-25.6-25.6H25.6C11.5,25.6,0,37.1,0,51.2v264.5
			C0,329.9,11.5,341.3,25.6,341.3z M25.6,324.3c-4.7,0-8.5-3.8-8.5-8.5v-17.1h68.3v25.6H25.6z M102.4,264.5h17.1v110.9h-17.1V264.5z
			 M128,247.5H93.9v-17.1H128V247.5z M93.9,213.3v-42.7c0-9.4,7.6-17.1,17.1-17.1s17.1,7.6,17.1,17.1v42.7H93.9z M110.9,435.2
			c-28,0-42.7-9.5-42.7-12.8v-12.7c27.3,11.2,58,11.2,85.3,0v12.7C153.6,425.7,138.9,435.2,110.9,435.2z M153.6,388.3
			c0,3.3-14.7,12.8-42.7,12.8s-42.7-9.5-42.7-12.8c0-1.8,5.4-6.5,17.4-9.7c1.5,8.1,8.5,13.9,16.8,14h17.1c8.2,0,15.3-5.9,16.8-14
			C148.2,381.8,153.6,386.5,153.6,388.3z M136.5,324.3v-25.6h187.8c-14,5.9-26.7,14.6-37.3,25.6H136.5z M460.8,401.1v68.3h-34.1
			v-68.3c0-4.7-3.8-8.5-8.5-8.5s-8.5,3.8-8.5,8.5v68.3h-85.3v-68.3c0-4.7-3.8-8.5-8.5-8.5c-4.7,0-8.5,3.8-8.5,8.5v68.3h-34.1v-68.3
			c0-51.8,42-93.9,93.9-93.9S460.8,349.2,460.8,401.1z M366.9,290.1c-42.4,0-76.8-34.4-76.8-76.8s34.4-76.8,76.8-76.8
			s76.8,34.4,76.8,76.8C443.7,255.7,409.3,290.1,366.9,290.1z M257.3,180.3c7.3-1.4,14.9-1.8,22.3-1.1c-7.6,19-8.6,40.1-2.9,59.7
			c-7.3,0.9-14.7,0.2-21.7-1.9c-9.7-3.9-16-13.3-16.1-23.7v-8.5C239,193.5,246.5,183.6,257.3,180.3z M494.9,213.3
			c0,14.1-11.5,25.6-25.6,25.6h-12.2c5.7-19.7,4.7-40.7-2.9-59.7c7.5-0.8,15-0.4,22.3,1.1c10.8,3.3,18.2,13.2,18.3,24.5L494.9,213.3
			z M465.2,162.1h-19.7c-17.3-26.6-46.9-42.7-78.6-42.7s-61.3,16-78.6,42.7h-19.7c19.1-36.6,57-59.6,98.3-59.6
			S446.1,125.5,465.2,162.1z M17.1,51.2c0-4.7,3.8-8.5,8.5-8.5h324.3c4.7,0,8.5,3.8,8.5,8.5v34.5c-48.9,3.4-91.6,34.4-110.1,79.9
			c-15.9,6.6-26.3,22-26.5,39.3v8.5c0.1,17.3,10.6,32.9,26.6,39.4c10.1,4.2,17.2,3.2,35,3.2c4.9,9.6,11.4,18.2,19.3,25.6H136.5
			v-17.1h30.3c16.5,19.6,46.5,6,46.5-46.9c0-74-59.7-74-59.7,0c-0.1,10.1,1.4,20.2,4.4,29.9h-12.9v-76.8c0-18.9-15.3-34.1-34.1-34.1
			s-34.1,15.3-34.1,34.1v76.8c0,6.1,3.3,11.7,8.5,14.7v19.4H17.1L17.1,51.2z M170.7,217.6c0-24.9,9.1-38.4,12.8-38.4
			s12.8,13.5,12.8,38.4s-9.1,38.4-12.8,38.4S170.7,242.5,170.7,217.6z"/>
		<path d="M42.7,93.9c3.5,0,2.4,0.1,30.3-18.5c3.9-2.6,5-7.9,2.4-11.8s-7.9-5-11.8-2.4L37.9,78.2c-3.1,2.1-4.5,6-3.4,9.6
			C35.6,91.4,38.9,93.9,42.7,93.9z"/>
		<path d="M135,63.4c-2.7-3.9-8-4.8-11.9-2.1L37.8,121c-3,2.1-4.4,6-3.2,9.6c1.1,3.6,4.4,6,8.1,6c3.8,0-2.7,3.7,90.2-61.3
			C136.7,72.6,137.7,67.2,135,63.4z"/>
	</g>
</g>
</svg>
